<svg xmlns="http://www.w3.org/2000/svg" width="880" height="620" viewBox="0 0 880 620" font-family="'Segoe UI','Microsoft YaHei',sans-serif">
  <!-- 图片预览窗口（暗色主题）-->
  <rect width="880" height="620" fill="#1E1F22"/>

  <!-- 标题栏 -->
  <rect x="0" y="0" width="880" height="40" fill="#2B2D30"/>
  <text x="16" y="26" fill="#DFE1E5" font-size="13" font-weight="600">图片预览 · abstract_4k_landscape.svg</text>
  <text x="864" y="26" fill="#9DA3AB" font-size="14" text-anchor="end">✕</text>
  <line x1="0" y1="40" x2="880" y2="40" stroke="#3C3F44"/>

  <!-- 内容区 -->
  <rect x="16" y="56" width="848" height="548" fill="#1E1F22"/>

  <!-- 顶部：文件名 + 信息 -->
  <text x="20" y="76" fill="#DFE1E5" font-size="14" font-weight="600">abstract_4k_landscape.svg</text>
  <text x="860" y="76" fill="#7E848C" font-size="11.5" text-anchor="end">3840 × 2160　42%（适应窗口）　2/5</text>

  <!-- 工具栏 -->
  <g>
    <rect x="20" y="88" width="30" height="28" rx="7" fill="none" stroke="#3C3F44"/>
    <path d="M30 98 L30 108 M26 98 L30 94 L34 98" stroke="#DFE1E5" stroke-width="1.6" fill="none" stroke-linecap="round"/>
    <text x="35" y="107" fill="#DFE1E5" font-size="9" text-anchor="middle">‹</text>

    <rect x="56" y="88" width="30" height="28" rx="7" fill="none" stroke="#3C3F44"/>
    <path d="M66 98 L66 108 M62 108 L66 112 L70 108" stroke="#DFE1E5" stroke-width="1.6" fill="none" stroke-linecap="round"/>

    <rect x="104" y="88" width="30" height="28" rx="7" fill="none" stroke="#3C3F44"/>
    <circle cx="115" cy="99" r="6" fill="none" stroke="#DFE1E5" stroke-width="1.6"/>
    <line x1="119.5" y1="103.5" x2="123" y2="107" stroke="#DFE1E5" stroke-width="1.6" stroke-linecap="round"/>
    <line x1="112" y1="99" x2="118" y2="99" stroke="#DFE1E5" stroke-width="1.6" stroke-linecap="round"/>

    <rect x="140" y="88" width="30" height="28" rx="7" fill="none" stroke="#3C3F44"/>
    <circle cx="151" cy="99" r="6" fill="none" stroke="#DFE1E5" stroke-width="1.6"/>
    <line x1="155.5" y1="103.5" x2="159" y2="107" stroke="#DFE1E5" stroke-width="1.6" stroke-linecap="round"/>
    <line x1="148" y1="99" x2="154" y2="99" stroke="#DFE1E5" stroke-width="1.6" stroke-linecap="round"/>
    <line x1="151" y1="96" x2="151" y2="102" stroke="#DFE1E5" stroke-width="1.6" stroke-linecap="round"/>

    <rect x="176" y="88" width="30" height="28" rx="7" fill="none" stroke="#3C3F44"/>
    <rect x="185" y="96" width="12" height="12" rx="2" fill="none" stroke="#DFE1E5" stroke-width="1.5"/>

    <rect x="212" y="88" width="30" height="28" rx="7" fill="none" stroke="#3C3F44"/>
    <rect x="221" y="96" width="12" height="10" rx="2" fill="none" stroke="#DFE1E5" stroke-width="1.5"/>
    <text x="227" y="105" fill="#DFE1E5" font-size="7.5" text-anchor="middle">1:1</text>

    <rect x="256" y="88" width="30" height="28" rx="7" fill="none" stroke="#3C3F44"/>
    <rect x="265" y="99" width="9" height="9" rx="1.5" fill="none" stroke="#DFE1E5" stroke-width="1.5"/>
    <path d="M279 96 L274 101 M274 96 L279 101" stroke="#DFE1E5" stroke-width="1.5" stroke-linecap="round"/>
  </g>

  <!-- 画布 + 棋盘底 -->
  <rect x="20" y="130" width="848" height="458" rx="8" fill="#26282B" stroke="#3C3F44"/>
  <g>
    <!-- 4K 抽象风景（示意渲染结果） -->
    <rect x="88" y="164" width="712" height="390" fill="#FDF6EC"/>
    <circle cx="470" cy="300" r="86" fill="#F5C66E"/>
    <path d="M88 554 L300 400 L440 500 L620 392 L800 540 L800 554 Z" fill="#4F6F5E"/>
    <path d="M88 554 L240 468 L400 540 L560 470 L800 554 Z" fill="#6E8F7C"/>
    <rect x="88" y="520" width="712" height="34" fill="#DCE9E2" opacity="0.75"/>
    <circle cx="470" cy="512" r="48" fill="#F5C66E" opacity="0.28"/>
  </g>

  <!-- 底部快捷键提示 -->
  <text x="20" y="606" fill="#6E7781" font-size="11">← → 翻页　Ctrl + 滚轮 缩放　空格 适应窗口　Esc 关闭</text>
</svg>
